<svg width="24" height="24" viewBox="0 0 24 24" fill="none" xmlns="http://www.w3.org/2000/svg">
  <rect width="24" height="24" rx="4" fill="#000000"/>
  <path d="M12 2C6.48 2 2 6.48 2 12s4.48 10 10 10c1.66 0 3.2-.45 4.53-1.24L18.5 21l1.5-1.5-1.5-1.5c.79-1.33 1.24-2.87 1.24-4.5 0-5.52-4.48-10-10-10zm0 18c-4.41 0-8-3.59-8-8s3.59-8 8-8 8 3.59 8 8-3.59 8-8 8z" fill="white"/>
  <path d="M12 6c-3.31 0-6 2.69-6 6s2.69 6 6 6c1.66 0 3.2-.45 4.53-1.24L16.5 18l1.5-1.5-1.5-1.5c.79-1.33 1.24-2.87 1.24-4.5 0-3.31-2.69-6-6-6zm0 10c-2.21 0-4-1.79-4-4s1.79-4 4-4 4 1.79 4 4-1.79 4-4 4z" fill="white"/>
  <path d="M12 8c-2.21 0-4 1.79-4 4s1.79 4 4 4c1.66 0 3.2-.45 4.53-1.24L16.5 16l1.5-1.5-1.5-1.5c.79-1.33 1.24-2.87 1.24-4.5 0-2.21-1.79-4-4-4zm0 6c-1.1 0-2-.9-2-2s.9-2 2-2 2 .9 2 2-.9 2-2 2z" fill="white"/>
  <path d="M12 10c-1.1 0-2 .9-2 2s.9 2 2 2c1.66 0 3.2-.45 4.53-1.24L16.5 14l1.5-1.5-1.5-1.5c.79-1.33 1.24-2.87 1.24-4.5 0-1.1-.9-2-2-2zm0 2c0 0 0 0 0 0z" fill="white"/>
  <circle cx="12" cy="12" r="2" fill="white"/>
</svg>
