<svg width="24" height="24" viewBox="0 0 24 24" fill="none" xmlns="http://www.w3.org/2000/svg">
  <rect width="24" height="24" rx="4" fill="#FEE500"/>
  <path d="M12 3c-4.97 0-9 4.03-9 9s4.03 9 9 9c1.66 0 3.2-.45 4.53-1.24L16.5 21l1.5-1.5-1.5-1.5c.79-1.33 1.24-2.87 1.24-4.5 0-4.97-4.03-9-9-9zm0 16c-3.86 0-7-3.14-7-7s3.14-7 7-7 7 3.14 7 7-3.14 7-7 7z" fill="#3C1E1E"/>
  <path d="M12 6c-3.31 0-6 2.69-6 6s2.69 6 6 6c1.66 0 3.2-.45 4.53-1.24L16.5 18l1.5-1.5-1.5-1.5c.79-1.33 1.24-2.87 1.24-4.5 0-3.31-2.69-6-6-6zm0 10c-2.21 0-4-1.79-4-4s1.79-4 4-4 4 1.79 4 4-1.79 4-4 4z" fill="#3C1E1E"/>
  <text x="12" y="16" text-anchor="middle" font-family="Arial, sans-serif" font-size="10" font-weight="bold" fill="#3C1E1E">K</text>
</svg>