<svg width="24" height="24" viewBox="0 0 24 24" fill="none" xmlns="http://www.w3.org/2000/svg">
  <rect width="24" height="24" rx="4" fill="#03C75A"/>
  <path d="M12 2C6.48 2 2 6.48 2 12s4.48 10 10 10c1.66 0 3.2-.45 4.53-1.24L18.5 21l1.5-1.5-1.5-1.5c.79-1.33 1.24-2.87 1.24-4.5 0-5.52-4.48-10-10-10zm0 18c-4.41 0-8-3.59-8-8s3.59-8 8-8 8 3.59 8 8-3.59 8-8 8z" fill="white"/>
  <text x="12" y="16" text-anchor="middle" font-family="Arial, sans-serif" font-size="12" font-weight="bold" fill="white">N</text>
</svg>